<?xml version="1.0" standalone="yes"?>
<!DOCTYPE svg PUBLIC "-//W3C//DTD SVG 1.1//EN"
 "http://www.w3.org/Graphics/SVG/1.1/DTD/svg11.dtd">
<svg xmlns="http://www.w3.org/2000/svg" version="1.1"
  width="100%" height="100%" viewBox="0 0 1024 768"
  style="fill: none; font-family: Helvetica;
 font: Helvetica;
">

<!-- Creator: NGspice -->

<rect x="0" y="0" width="1024" height="768" fill="black" stroke="none"/>
<text stroke="none" fill="white" font-size="16" x="358" y="752">
time
</text>
<text stroke="none" fill="white" font-size="16" x="10" y="16">
tran1: RC Low-Pass Filter — Step Response
</text>
<path stroke="white" d="M50 720l0 -670"/>
<text stroke="none" fill="white" font-size="16" x="35" y="728">
0.0
</text>
<path stroke="white" stroke-dasharray="1,2" d="M142 720l0 -670"/>
<text stroke="none" fill="white" font-size="16" x="122" y="728">
10.0
</text>
<path stroke="white" stroke-dasharray="1,2" d="M234 720l0 -670"/>
<text stroke="none" fill="white" font-size="16" x="214" y="728">
20.0
</text>
<path stroke="white" stroke-dasharray="1,2" d="M326 720l0 -670"/>
<text stroke="none" fill="white" font-size="16" x="306" y="728">
30.0
</text>
<path stroke="white" stroke-dasharray="1,2" d="M418 720l0 -670"/>
<text stroke="none" fill="white" font-size="16" x="398" y="728">
40.0
</text>
<path stroke="white" stroke-dasharray="1,2" d="M510 720l0 -670"/>
<text stroke="none" fill="white" font-size="16" x="490" y="728">
50.0
</text>
<path stroke="white" stroke-dasharray="1,2" d="M602 720l0 -670"/>
<text stroke="none" fill="white" font-size="16" x="582" y="728">
60.0
</text>
<path stroke="white" stroke-dasharray="1,2" d="M694 720l0 -670"/>
<text stroke="none" fill="white" font-size="16" x="674" y="728">
70.0
</text>
<path stroke="white" stroke-dasharray="1,2" d="M786 720l0 -670"/>
<text stroke="none" fill="white" font-size="16" x="766" y="728">
80.0
</text>
<path stroke="white" stroke-dasharray="1,2" d="M878 720l0 -670"/>
<text stroke="none" fill="white" font-size="16" x="858" y="728">
90.0
</text>
<path stroke="white" stroke-dasharray="1,2" d="M970 720l0 -670"/>
<text stroke="none" fill="white" font-size="16" x="945" y="728">
100.0
</text>
<text stroke="none" fill="white" font-size="16" x="614" y="752">
us
</text>
<path stroke="white" d="M50 720l920 0"/>
<text stroke="none" fill="white" font-size="16" x="18" y="728">
0.0
</text>
<path stroke="white" stroke-dasharray="1,2" d="M50 653l920 0"/>
<text stroke="none" fill="white" font-size="16" x="18" y="661">
0.1
</text>
<path stroke="white" stroke-dasharray="1,2" d="M50 586l920 0"/>
<text stroke="none" fill="white" font-size="16" x="18" y="594">
0.2
</text>
<path stroke="white" stroke-dasharray="1,2" d="M50 519l920 0"/>
<text stroke="none" fill="white" font-size="16" x="18" y="527">
0.3
</text>
<path stroke="white" stroke-dasharray="1,2" d="M50 452l920 0"/>
<text stroke="none" fill="white" font-size="16" x="18" y="460">
0.4
</text>
<path stroke="white" stroke-dasharray="1,2" d="M50 385l920 0"/>
<text stroke="none" fill="white" font-size="16" x="18" y="393">
0.5
</text>
<path stroke="white" stroke-dasharray="1,2" d="M50 318l920 0"/>
<text stroke="none" fill="white" font-size="16" x="18" y="326">
0.6
</text>
<path stroke="white" stroke-dasharray="1,2" d="M50 251l920 0"/>
<text stroke="none" fill="white" font-size="16" x="18" y="259">
0.7
</text>
<path stroke="white" stroke-dasharray="1,2" d="M50 184l920 0"/>
<text stroke="none" fill="white" font-size="16" x="18" y="192">
0.8
</text>
<path stroke="white" stroke-dasharray="1,2" d="M50 117l920 0"/>
<text stroke="none" fill="white" font-size="16" x="18" y="125">
0.9
</text>
<path stroke="white" stroke-dasharray="1,2" d="M50 50l920 0"/>
<text stroke="none" fill="white" font-size="16" x="18" y="58">
1.0
</text>
<text stroke="none" fill="white" font-size="16" x="10" y="32">
V
</text>
<path stroke="red" d="M460 23l46 0"/>
<text stroke="none" fill="white" font-size="16" x="516" y="32">
v(in)
</text>
<path stroke="red" d="M50 720l46 0 0 -670 874 0"/>
<path stroke="blue" d="M50 23l46 0"/>
<text stroke="none" fill="white" font-size="16" x="106" y="32">
v(out)
</text>
<path stroke="blue" d="M50 720l46 0 0 -3 1 -4 1 -6 1 -7 1 -6 1 -7 1 -6 0 -6 1 -7 6 -36 1 -5 2 -12 1 -5 1 -6 0 -6 2 -10 1 -6 2 -10 1 -6 5 -25 0 -5 1 -4 3 -15 1 -4 1 -5 1 -4 1 -5 1 -4 1 -5 1 -4 1 -5 0 -4 2 -8 1 -5 7 -28 1 -3 0 -4 2 -8 1 -3 2 -8"/>
<path stroke="blue" d="M153 410l1 -3 1 -4 1 -3 1 -4 1 -3 1 -4 1 -3 0 -3 1 -4 3 -9 1 -4 6 -18 0 -3 4 -12 1 -2 3 -9 1 -2 2 -6 1 -2 0 -3 1 -3 1 -2 1 -3 1 -2 1 -3 2 -4 1 -3 1 -2 1 -3 1 -2 0 -2 1 -3 4 -8 1 -3 6 -12 0 -2 9 -18 1 -1 1 -2 0 -2 2 -4 1 -1"/>
<path stroke="blue" d="M220 224l2 -4 1 -1 2 -4 1 -1 2 -4 1 -1 0 -2 1 -1 2 -4 1 -1 1 -2 2 -2 1 -2 1 -1 1 -2 1 -1 0 -2 2 -2 1 -2 2 -2 1 -2 2 -2 1 -2 3 -3 0 -2 4 -4 1 -2 6 -6 0 -1 1 -2 11 -11 0 -1 3 -3 1 0 12 -12 1 0 4 -4 1 0 1 -1 0 -1 1 -1 1 0"/>
<path stroke="blue" d="M300 123l2 -2 1 0 2 -2 1 0 4 -4 1 0 2 -2 1 0 2 -2 1 0 1 -1 1 0 3 -3 1 0 1 -1 1 0 2 -2 1 0 1 -1 1 0 1 -1 1 0 0 -1 1 0 1 -1 1 0 1 -1 1 0 1 -1 1 0 1 -1 1 0 1 -1 1 0 1 -1 1 0 1 -1 1 0 1 -1 1 0 1 -1 2 0 1 -1 1 0 1 -1 1 0 1 -1"/>
<path stroke="blue" d="M357 89l1 0 1 -1 2 0 1 -1 1 0 1 -1 2 0 1 -1 1 0 1 -1 2 0 1 -1 2 0 1 -1 2 0 1 -1 1 0 1 -1 3 0 1 -1 2 0 1 -1 3 0 0 -1 2 0 1 -1 3 0 1 -1 3 0 1 -1 3 0 1 -1 3 0 1 -1 3 0 1 -1 3 0 1 -1 4 0 1 -1 3 0 1 -1 5 0 1 -1 4 0 1 -1 5 0"/>
<path stroke="blue" d="M442 66l1 -1 5 0 1 -1 6 0 1 -1 6 0 1 -1 7 0 0 -1 8 0 1 -1 8 0 1 -1 9 0 1 -1 11 0 1 -1 12 0 1 -1 15 0 1 -1 17 0 1 -1 22 0 1 -1 30 0 1 -1 46 0 1 -1 100 0 1 -1 211 0"/>
</svg>
