<?xml version="1.0" standalone="yes"?>
<!DOCTYPE svg PUBLIC "-//W3C//DTD SVG 1.1//EN"
 "http://www.w3.org/Graphics/SVG/1.1/DTD/svg11.dtd">
<svg xmlns="http://www.w3.org/2000/svg" version="1.1"
  width="100%" height="100%" viewBox="0 0 1024 768"
  style="fill: none; font-family: Helvetica;
 font: Helvetica;
">

<!-- Creator: NGspice -->

<rect x="0" y="0" width="1024" height="768" fill="black" stroke="none"/>
<text stroke="none" fill="white" font-size="16" x="358" y="752">
time
</text>
<text stroke="none" fill="white" font-size="16" x="10" y="16">
tran1: Inverting Amplifier — Transient
</text>
<path stroke="white" d="M50 720l0 -670"/>
<text stroke="none" fill="white" font-size="16" x="35" y="728">
0.0
</text>
<path stroke="white" stroke-dasharray="1,2" d="M142 720l0 -670"/>
<text stroke="none" fill="white" font-size="16" x="127" y="728">
0.5
</text>
<path stroke="white" stroke-dasharray="1,2" d="M234 720l0 -670"/>
<text stroke="none" fill="white" font-size="16" x="219" y="728">
1.0
</text>
<path stroke="white" stroke-dasharray="1,2" d="M326 720l0 -670"/>
<text stroke="none" fill="white" font-size="16" x="311" y="728">
1.5
</text>
<path stroke="white" stroke-dasharray="1,2" d="M418 720l0 -670"/>
<text stroke="none" fill="white" font-size="16" x="403" y="728">
2.0
</text>
<path stroke="white" stroke-dasharray="1,2" d="M510 720l0 -670"/>
<text stroke="none" fill="white" font-size="16" x="495" y="728">
2.5
</text>
<path stroke="white" stroke-dasharray="1,2" d="M602 720l0 -670"/>
<text stroke="none" fill="white" font-size="16" x="587" y="728">
3.0
</text>
<path stroke="white" stroke-dasharray="1,2" d="M694 720l0 -670"/>
<text stroke="none" fill="white" font-size="16" x="679" y="728">
3.5
</text>
<path stroke="white" stroke-dasharray="1,2" d="M786 720l0 -670"/>
<text stroke="none" fill="white" font-size="16" x="771" y="728">
4.0
</text>
<path stroke="white" stroke-dasharray="1,2" d="M878 720l0 -670"/>
<text stroke="none" fill="white" font-size="16" x="863" y="728">
4.5
</text>
<path stroke="white" stroke-dasharray="1,2" d="M970 720l0 -670"/>
<text stroke="none" fill="white" font-size="16" x="955" y="728">
5.0
</text>
<text stroke="none" fill="white" font-size="16" x="614" y="752">
ms
</text>
<path stroke="white" stroke-dasharray="1,2" d="M50 720l920 0"/>
<text stroke="none" fill="white" font-size="16" x="8" y="728">
-1.0
</text>
<path stroke="white" stroke-dasharray="1,2" d="M50 653l920 0"/>
<text stroke="none" fill="white" font-size="16" x="8" y="661">
-0.8
</text>
<path stroke="white" stroke-dasharray="1,2" d="M50 586l920 0"/>
<text stroke="none" fill="white" font-size="16" x="8" y="594">
-0.6
</text>
<path stroke="white" stroke-dasharray="1,2" d="M50 519l920 0"/>
<text stroke="none" fill="white" font-size="16" x="8" y="527">
-0.4
</text>
<path stroke="white" stroke-dasharray="1,2" d="M50 452l920 0"/>
<text stroke="none" fill="white" font-size="16" x="8" y="460">
-0.2
</text>
<path stroke="white" d="M50 385l920 0"/>
<text stroke="none" fill="white" font-size="16" x="18" y="393">
0.0
</text>
<path stroke="white" stroke-dasharray="1,2" d="M50 318l920 0"/>
<text stroke="none" fill="white" font-size="16" x="18" y="326">
0.2
</text>
<path stroke="white" stroke-dasharray="1,2" d="M50 251l920 0"/>
<text stroke="none" fill="white" font-size="16" x="18" y="259">
0.4
</text>
<path stroke="white" stroke-dasharray="1,2" d="M50 184l920 0"/>
<text stroke="none" fill="white" font-size="16" x="18" y="192">
0.6
</text>
<path stroke="white" stroke-dasharray="1,2" d="M50 117l920 0"/>
<text stroke="none" fill="white" font-size="16" x="18" y="125">
0.8
</text>
<path stroke="white" stroke-dasharray="1,2" d="M50 50l920 0"/>
<text stroke="none" fill="white" font-size="16" x="18" y="58">
1.0
</text>
<text stroke="none" fill="white" font-size="16" x="10" y="32">
V
</text>
<path stroke="red" d="M460 23l46 0"/>
<text stroke="none" fill="white" font-size="16" x="516" y="32">
v(in)
</text>
<path stroke="red" d="M50 385l1 -1 1 -2 10 -10 1 -2 2 -2 2 -1 4 -4 2 -1 1 -2 4 -2 2 -2 4 -2 1 0 4 -2 13 0 2 1 2 0 2 1 1 1 6 3 2 2 2 1 1 2 2 1 4 4 2 1 2 2 1 2 10 10 2 3 1 2 10 10 1 2 2 2 2 1 4 4 2 1 1 2 4 2 2 2 4 2 1 0 4 2 13 0 2 -1 2 0 2 -1 1 -1"/>
<path stroke="red" d="M201 415l6 -3 2 -2 2 -1 1 -2 2 -1 4 -4 2 -1 2 -2 1 -2 10 -10 2 -3 1 -2 10 -10 1 -2 2 -2 2 -1 4 -4 2 -1 1 -2 4 -2 2 -2 4 -2 1 0 4 -2 13 0 2 1 2 0 2 1 1 1 6 3 2 2 2 1 1 2 2 1 4 4 2 1 2 2 1 2 10 10 2 3 1 2 10 10 1 2 2 2 2 1"/>
<path stroke="red" d="M343 403l4 4 2 1 1 2 4 2 2 2 4 2 1 0 4 2 13 0 2 -1 2 0 2 -1 1 -1 6 -3 2 -2 2 -1 1 -2 2 -1 4 -4 2 -1 2 -2 1 -2 10 -10 2 -3 1 -2 10 -10 1 -2 2 -2 2 -1 4 -4 2 -1 1 -2 4 -2 2 -2 4 -2 1 0 4 -2 13 0 2 1 2 0 2 1 1 1 6 3 2 2 2 1"/>
<path stroke="red" d="M487 361l1 2 2 1 4 4 2 1 2 2 1 2 10 10 2 3 1 2 10 10 1 2 2 2 2 1 4 4 2 1 1 2 4 2 2 2 4 2 1 0 4 2 13 0 2 -1 2 0 2 -1 1 -1 6 -3 2 -2 2 -1 1 -2 2 -1 4 -4 2 -1 2 -2 1 -2 10 -10 2 -3 1 -2 10 -10 1 -2 2 -2 2 -1 4 -4 2 -1 1 -2"/>
<path stroke="red" d="M626 360l4 -2 2 -2 4 -2 1 0 4 -2 13 0 2 1 2 0 2 1 1 1 6 3 2 2 2 1 1 2 2 1 4 4 2 1 2 2 1 2 10 10 2 3 1 2 10 10 1 2 2 2 2 1 4 4 2 1 1 2 4 2 2 2 4 2 1 0 4 2 13 0 2 -1 2 0 2 -1 1 -1 6 -3 2 -2 2 -1 1 -2 2 -1 4 -4 2 -1 2 -2 1 -2"/>
<path stroke="red" d="M775 397l10 -10 2 -3 1 -2 10 -10 1 -2 2 -2 2 -1 4 -4 2 -1 1 -2 4 -2 2 -2 4 -2 1 0 4 -2 13 0 2 1 2 0 2 1 1 1 6 3 2 2 2 1 1 2 2 1 4 4 2 1 2 2 1 2 10 10 2 3 1 2 10 10 1 2 2 2 2 1 4 4 2 1 1 2 4 2 2 2 4 2 1 0 4 2 13 0 2 -1 2 0"/>
<path stroke="red" d="M934 417l2 -1 1 -1 6 -3 2 -2 2 -1 1 -2 2 -1 4 -4 2 -1 2 -2 1 -2 10 -10 1 -2"/>
<path stroke="blue" d="M50 23l46 0"/>
<text stroke="none" fill="white" font-size="16" x="106" y="32">
v(out)
</text>
<path stroke="blue" d="M50 388l0 -3M50 388l1 4M51 398l0 -6M51 398l1 14 4 42 6 60 1 19 2 19 2 17 2 18 4 32 1 14 2 14 4 24 4 20 1 8 4 12 2 4 2 3 2 2 2 0 3 -3 2 -4 2 -5 2 -6 2 -8 1 -8 2 -10 2 -11 2 -12 4 -28 1 -15 2 -16 2 -17 4 -36 2 -19 1 -19 4 -40"/>
<path stroke="blue" d="M135 463l8 -84 1 -21 4 -42 6 -60 1 -19 2 -19 2 -17 2 -18 4 -32 1 -14 2 -14 4 -24 4 -20 1 -8 4 -12 2 -4 2 -3 2 -2 2 0 3 3 2 4 2 5 2 6 2 8 1 8 2 10 2 11 2 12 4 28 1 15 2 16 2 17 4 36 2 19 1 19 4 40 8 84 1 21 4 42 6 60 1 19"/>
<path stroke="blue" d="M247 533l2 19 2 17 2 18 4 32 1 14 2 14 4 24 4 20 1 8 4 12 2 4 2 3 2 2 2 0 3 -3 2 -4 2 -5 2 -6 2 -8 1 -8 2 -10 2 -11 2 -12 4 -28 1 -15 2 -16 2 -17 4 -36 2 -19 1 -19 4 -40 8 -84 1 -21 4 -42 6 -60 1 -19 2 -19 2 -17 2 -18 4 -32"/>
<path stroke="blue" d="M349 151l1 -14 2 -14 4 -24 4 -20 1 -8 4 -12 2 -4 2 -3 2 -2 2 0 3 3 2 4 2 5 2 6 2 8 1 8 2 10 2 11 2 12 4 28 1 15 2 16 2 17 4 36 2 19 1 19 4 40 8 84 1 21 4 42 6 60 1 19 2 19 2 17 2 18 4 32 1 14 2 14 4 24 4 20 1 8 4 12 2 4"/>
<path stroke="blue" d="M459 715l2 3 2 2 2 0 3 -3 2 -4 2 -5 2 -6 2 -8 1 -8 2 -10 2 -11 2 -12 4 -28 1 -15 2 -16 2 -17 4 -36 2 -19 1 -19 4 -40 8 -84 1 -21 4 -42 6 -60 1 -19 2 -19 2 -17 2 -18 4 -32 1 -14 2 -14 4 -24 4 -20 1 -8 4 -12 2 -4 2 -3 2 -2"/>
<path stroke="blue" d="M555 50l2 0 3 3 2 4 2 5 2 6 2 8 1 8 2 10 2 11 2 12 4 28 1 15 2 16 2 17 4 36 2 19 1 19 4 40 8 84 1 21 4 42 6 60 1 19 2 19 2 17 2 18 4 32 1 14 2 14 4 24 4 20 1 8 4 12 2 4 2 3 2 2 2 0 3 -3 2 -4 2 -5 2 -6 2 -8 1 -8 2 -10 2 -11"/>
<path stroke="blue" d="M665 665l2 -12 4 -28 1 -15 2 -16 2 -17 4 -36 2 -19 1 -19 4 -40 8 -84 1 -21 4 -42 6 -60 1 -19 2 -19 2 -17 2 -18 4 -32 1 -14 2 -14 4 -24 4 -20 1 -8 4 -12 2 -4 2 -3 2 -2 2 0 3 3 2 4 2 5 2 6 2 8 1 8 2 10 2 11 2 12 4 28 1 15"/>
<path stroke="blue" d="M764 160l2 16 2 17 4 36 2 19 1 19 4 40 8 84 1 21 4 42 6 60 1 19 2 19 2 17 2 18 4 32 1 14 2 14 4 24 4 20 1 8 4 12 2 4 2 3 2 2 2 0 3 -3 2 -4 2 -5 2 -6 2 -8 1 -8 2 -10 2 -11 2 -12 4 -28 1 -15 2 -16 2 -17 4 -36 2 -19 1 -19"/>
<path stroke="blue" d="M867 503l4 -40 8 -84 1 -21 4 -42 6 -60 1 -19 2 -19 2 -17 2 -18 4 -32 1 -14 2 -14 4 -24 4 -20 1 -8 4 -12 2 -4 2 -3 2 -2 2 0 3 3 2 4 2 5 2 6 2 8 1 8 2 10 2 11 2 12 4 28 1 15 2 16 2 17 4 36 2 19 1 19 4 40 6 63 1 15"/>
</svg>
