<?xml version="1.0" standalone="yes"?>
<!DOCTYPE svg PUBLIC "-//W3C//DTD SVG 1.1//EN"
 "http://www.w3.org/Graphics/SVG/1.1/DTD/svg11.dtd">
<svg xmlns="http://www.w3.org/2000/svg" version="1.1"
  width="100%" height="100%" viewBox="0 0 1024 768"
  style="fill: none; font-family: Helvetica;
 font: Helvetica;
">

<!-- Creator: NGspice -->

<rect x="0" y="0" width="1024" height="768" fill="black" stroke="none"/>
<text stroke="none" fill="white" font-size="16" x="358" y="752">
time
</text>
<text stroke="none" fill="white" font-size="16" x="10" y="16">
tran1: 555 Astable — Cap Voltage and Output
</text>
<path stroke="white" d="M50 720l0 -670"/>
<text stroke="none" fill="white" font-size="16" x="35" y="728">
0.0
</text>
<path stroke="white" stroke-dasharray="1,2" d="M142 720l0 -670"/>
<text stroke="none" fill="white" font-size="16" x="127" y="728">
0.5
</text>
<path stroke="white" stroke-dasharray="1,2" d="M234 720l0 -670"/>
<text stroke="none" fill="white" font-size="16" x="219" y="728">
1.0
</text>
<path stroke="white" stroke-dasharray="1,2" d="M326 720l0 -670"/>
<text stroke="none" fill="white" font-size="16" x="311" y="728">
1.5
</text>
<path stroke="white" stroke-dasharray="1,2" d="M418 720l0 -670"/>
<text stroke="none" fill="white" font-size="16" x="403" y="728">
2.0
</text>
<path stroke="white" stroke-dasharray="1,2" d="M510 720l0 -670"/>
<text stroke="none" fill="white" font-size="16" x="495" y="728">
2.5
</text>
<path stroke="white" stroke-dasharray="1,2" d="M602 720l0 -670"/>
<text stroke="none" fill="white" font-size="16" x="587" y="728">
3.0
</text>
<path stroke="white" stroke-dasharray="1,2" d="M694 720l0 -670"/>
<text stroke="none" fill="white" font-size="16" x="679" y="728">
3.5
</text>
<path stroke="white" stroke-dasharray="1,2" d="M786 720l0 -670"/>
<text stroke="none" fill="white" font-size="16" x="771" y="728">
4.0
</text>
<path stroke="white" stroke-dasharray="1,2" d="M878 720l0 -670"/>
<text stroke="none" fill="white" font-size="16" x="863" y="728">
4.5
</text>
<path stroke="white" stroke-dasharray="1,2" d="M970 720l0 -670"/>
<text stroke="none" fill="white" font-size="16" x="955" y="728">
5.0
</text>
<text stroke="none" fill="white" font-size="16" x="614" y="752">
s
</text>
<path stroke="white" d="M50 720l920 0"/>
<text stroke="none" fill="white" font-size="16" x="18" y="728">
0.0
</text>
<path stroke="white" stroke-dasharray="1,2" d="M50 653l920 0"/>
<text stroke="none" fill="white" font-size="16" x="18" y="661">
0.5
</text>
<path stroke="white" stroke-dasharray="1,2" d="M50 586l920 0"/>
<text stroke="none" fill="white" font-size="16" x="18" y="594">
1.0
</text>
<path stroke="white" stroke-dasharray="1,2" d="M50 519l920 0"/>
<text stroke="none" fill="white" font-size="16" x="18" y="527">
1.5
</text>
<path stroke="white" stroke-dasharray="1,2" d="M50 452l920 0"/>
<text stroke="none" fill="white" font-size="16" x="18" y="460">
2.0
</text>
<path stroke="white" stroke-dasharray="1,2" d="M50 385l920 0"/>
<text stroke="none" fill="white" font-size="16" x="18" y="393">
2.5
</text>
<path stroke="white" stroke-dasharray="1,2" d="M50 318l920 0"/>
<text stroke="none" fill="white" font-size="16" x="18" y="326">
3.0
</text>
<path stroke="white" stroke-dasharray="1,2" d="M50 251l920 0"/>
<text stroke="none" fill="white" font-size="16" x="18" y="259">
3.5
</text>
<path stroke="white" stroke-dasharray="1,2" d="M50 184l920 0"/>
<text stroke="none" fill="white" font-size="16" x="18" y="192">
4.0
</text>
<path stroke="white" stroke-dasharray="1,2" d="M50 117l920 0"/>
<text stroke="none" fill="white" font-size="16" x="18" y="125">
4.5
</text>
<path stroke="white" stroke-dasharray="1,2" d="M50 50l920 0"/>
<text stroke="none" fill="white" font-size="16" x="18" y="58">
5.0
</text>
<text stroke="none" fill="white" font-size="16" x="10" y="32">
V
</text>
<path stroke="red" d="M460 23l46 0"/>
<text stroke="none" fill="white" font-size="16" x="516" y="32">
v(cap_node)
</text>
<path stroke="red" d="M50 720l0 -2 1 -1 0 -6 1 -1 0 -5 1 -1 0 -6 1 -1 0 -5 1 -1 0 -4 1 -1 0 -6 1 -1 0 -4 1 -1 0 -6 1 -1 0 -4 1 -1 0 -6 1 -1 0 -4 1 -1 0 -4 1 -1 0 -5 1 -2 0 -4 1 -1 0 -5 1 -1 0 -4 1 -1 0 -5 1 -1 0 -4 1 -1 0 -5 1 -1 0 -4 1 0 0 -4"/>
<path stroke="red" d="M71 597l1 -1 0 -5 1 -1 0 -4 1 -1 0 -4 1 -1 0 -4 1 -1 0 -5 1 0 0 -4 1 -1 0 -4 1 0 0 -5 1 -1 0 -3 1 -1 0 -5 1 0 0 -4 1 -1 0 -4 1 -1 0 -3 1 -1 0 -4 1 0 0 -5 1 0 0 -4 1 -1 0 -4 1 0 0 -4 1 0 0 -5 1 0 0 -3 1 -1 0 -4 1 -1 0 -3"/>
<path stroke="red" d="M93 493l1 -1 0 -3 1 -1 0 -4 1 0 0 -3 1 -1 0 -4 1 -1 0 -3 1 0 0 -4 1 -1 0 -3 1 0 0 -3 1 -1 0 -4 1 0 0 -3 1 -1 0 -3 1 -1 0 -3 1 -1 0 -3 1 -1 0 -2 1 -1 0 -3 1 0 0 -4 1 0 0 -3 1 -1 0 -3 1 -1 0 -2 1 -1 0 -3 1 -1 0 -2 1 -1 0 -3"/>
<path stroke="red" d="M115 409l1 -1 0 -2 1 -1 0 -2 1 -1 0 -3 1 -1 0 -2 1 -1 0 -3 1 0 0 -3 1 0 0 -3 1 -1 0 -2 1 -1 0 -2 1 -1 0 -3 1 0 0 -2 1 -1 0 -3 1 0 0 -3 1 0 0 -3 1 -1 0 -2 1 0 0 -2 1 -1 0 -3 1 0 0 -2 1 -1 0 -3 1 0 0 -2 1 -1 0 -2 1 -1 0 -2"/>
<path stroke="red" d="M137 341l1 0 0 -3 1 0 0 -2 1 -1 0 -2 1 0 0 -3 1 0 0 -2 1 -1 0 -2 1 -1 0 -2 1 0 0 -2 1 -1 0 -2 1 0 0 -2 1 -1 0 -2 1 0 0 -2 1 -1 0 -2 1 0 0 -2 1 -1 0 -2 1 0 0 -2 1 0 0 -2 1 -1 0 -2 1 0 0 -2 1 0 0 -2 1 -1 0 -2 1 0 0 -2 1 0"/>
<path stroke="red" d="M160 286l0 -2 1 -1 0 -2 1 0 0 -2 1 0 0 -2 1 0 0 -2 1 0 0 -2M165 275l1 1M166 279l0 -3M166 279l1 1M167 285l0 -5M167 285l1 1M168 289l0 -3M168 289l1 1M169 294l0 -4M169 294l1 1M170 299l0 -4M170 299l1 1M171 304l0 -4M171 304l1 1"/>
<path stroke="red" d="M172 309l0 -4M172 309l1 1M173 313l0 -3M173 313l1 1M174 319l0 -5M174 319l1 0M175 323l0 -4M175 323l1 1M176 327l0 -3M176 327l1 1M177 332l0 -4M177 332l1 1M178 336l0 -3M178 336l1 1M179 341l0 -4M179 341l1 1M180 345l0 -3M180 345l1 1"/>
<path stroke="red" d="M181 350l0 -4M181 350l1 0M182 354l0 -4M182 354l1 0M183 358l0 -4M183 358l1 1M184 362l0 -3M184 362l1 1M185 366l0 -3M185 366l1 1M186 370l0 -3M186 370l1 1M187 374l0 -3M187 374l1 1M188 378l0 -3M188 378l1 1M189 382l0 -3M189 382l1 1"/>
<path stroke="red" d="M190 386l0 -3M190 386l1 1M191 390l0 -3M191 390l1 1M192 393l0 -2M192 393l1 1M193 397l0 -3M193 397l1 1M194 401l0 -3M194 401l1 1M195 405l0 -3M195 405l1 1M196 408l0 -2M196 408l1 1M197 412l0 -3M197 412l1 1M198 415l0 -2M198 415l1 1"/>
<path stroke="red" d="M199 419l0 -3M199 419l1 0M200 422l0 -3M200 422l1 1M201 426l0 -3M201 426l1 0M202 429l0 -3M202 429l1 1M203 432l0 -2M203 432l1 1M204 436l0 -3M204 436l1 1M205 439l0 -2M205 439l1 1M206 443l0 -3M206 443l1 0M207 445l0 -2M207 445l1 1"/>
<path stroke="red" d="M208 448l0 -2M208 448l1 1M209 452l0 -3M209 452l1 0M210 455l0 -3M210 455l1 0M211 458l0 -3M211 458l1 1M212 461l0 -2M212 461l1 0M213 464l0 -3M213 464l1 1M214 467l0 -2M214 467l1 0M215 469l0 -2M215 469l1 1M216 473l0 -3M216 473l1 0"/>
<path stroke="red" d="M217 475l0 -2M217 475l1 1M218 478l0 -2M218 478l1 1M219 481l0 -2M219 481l1 0M220 484l0 -3M220 484l1 0M221 486l0 -2M221 486l1 1M222 489l0 -2M222 489l1 0M223 492l0 -3M223 492l1 0M224 494l0 -2M224 494l1 1M225 497l0 -2M225 496l1 -1"/>
<path stroke="red" d="M226 495l0 -3 1 -1 0 -3 1 -1 0 -3 1 -1 0 -3 1 -1 0 -4 1 0 0 -3 1 -1 0 -4 1 -1 0 -2 1 -1 0 -4 1 -1 0 -2 1 -1 0 -3 1 -1 0 -3 1 -1 0 -3 1 0 0 -4 1 0 0 -3 1 -1 0 -3 1 -1 0 -3 1 0 0 -3 1 0 0 -4 1 0 0 -3 1 -1 0 -3 1 -1 0 -2 1 -1"/>
<path stroke="red" d="M248 411l0 -3 1 0 0 -3 1 -1 0 -2 1 -1 0 -3 1 0 0 -3 1 0 0 -3 1 -1 0 -2 1 -1 0 -3 1 -1 0 -2 1 0 0 -3 1 -1 0 -2 1 -1 0 -2 1 -1 0 -2 1 -1 0 -2 1 -1 0 -3 1 0 0 -2 1 -1 0 -3 1 0 0 -2 1 -1 0 -2 1 0 0 -3 1 -1 0 -2 1 0 0 -3 1 0"/>
<path stroke="red" d="M270 343l0 -2 1 -1 0 -2 1 -1 0 -2 1 0 0 -2 1 -1 0 -2 1 -1 0 -2 1 0 0 -3 1 0 0 -2 1 -1 0 -2 1 0 0 -2 1 -1 0 -2 1 -1 0 -1 1 -1 0 -2 1 0 0 -2 1 -1 0 -2 1 0 0 -2 1 -1 0 -1 1 -1 0 -2 1 -1 0 -1 1 -1 0 -1 1 -1 0 -2 1 0 0 -2 1 0"/>
<path stroke="red" d="M292 288l0 -3 1 0 0 -2 1 0 0 -2 1 0 0 -2 1 0 0 -2 1 0 0 -2 1 -1M298 276l0 -3M298 276l1 1M299 280l0 -3M299 280l1 1M300 285l0 -4M300 285l1 1M301 291l0 -5M301 291l1 1M302 295l0 -3M302 295l1 1M303 301l0 -5M303 301l1 0M304 305l0 -4"/>
<path stroke="red" d="M304 305l1 1M305 310l0 -4M305 310l1 1M306 315l0 -4M306 315l1 0M307 320l0 -5M307 320l1 1M308 324l0 -3M308 324l1 1M309 328l0 -3M309 328l1 1M310 333l0 -4M310 333l1 1M311 337l0 -3M311 337l1 1M312 342l0 -4M312 342l1 1M313 346l0 -3"/>
<path stroke="red" d="M313 346l1 1M314 351l0 -4M314 351l1 0M315 355l0 -4M315 355l1 0M316 358l0 -3M316 358l1 1M317 363l0 -4M317 363l1 1M318 367l0 -3M318 367l1 1M319 371l0 -3M319 371l1 1M320 375l0 -3M320 375l1 1M321 379l0 -3M321 379l1 1M322 383l0 -3"/>
<path stroke="red" d="M322 383l1 1M323 386l0 -2M323 386l1 1M324 391l0 -4M324 391l1 0M325 394l0 -3M325 394l1 1M326 398l0 -3M326 398l1 1M327 402l0 -3M327 402l1 0M328 406l0 -4M328 406l1 0M329 409l0 -3M329 409l1 1M330 413l0 -3M330 413l1 1M331 416l0 -2"/>
<path stroke="red" d="M331 416l1 1M332 419l0 -2M332 419l1 1M333 423l0 -3M333 423l1 1M334 426l0 -2M334 426l1 1M335 430l0 -3M335 430l1 1M336 433l0 -2M336 433l1 1M337 437l0 -3M337 437l1 0M338 440l0 -3M338 440l1 0M339 443l0 -3M339 443l1 0M340 446l0 -3"/>
<path stroke="red" d="M340 446l1 1M341 449l0 -2M341 449l1 1M342 453l0 -3M342 453l1 0M343 455l0 -2M343 455l1 1M344 459l0 -3M344 459l1 0M345 461l0 -2M345 461l1 1M346 464l0 -2M346 464l1 1M347 467l0 -2M347 467l1 1M348 470l0 -2M348 470l1 1M349 473l0 -2"/>
<path stroke="red" d="M349 473l1 1M350 476l0 -2M350 476l1 0M351 479l0 -3M351 479l1 0M352 481l0 -2M352 481l1 1M353 485l0 -3M353 485l1 0M354 487l0 -2M354 487l1 0M355 489l0 -2M355 489l1 1M356 492l0 -2M356 492l1 1M357 495l0 -2M357 495l1 0M358 497l0 -2"/>
<path stroke="red" d="M358 495l1 0 0 -4 1 -1 0 -3 1 -1 0 -4 1 0 0 -3 1 -1 0 -3 1 -1 0 -4 1 0 0 -3 1 -1 0 -4 1 0 0 -3 1 -1 0 -3 1 -1 0 -3 1 -1 0 -3 1 0 0 -4 1 0 0 -3 1 -1 0 -3 1 -1 0 -3 1 0 0 -4 1 0 0 -3 1 -1 0 -2 1 -1 0 -3 1 -1 0 -2 1 -1 0 -3"/>
<path stroke="red" d="M380 411l1 -1 0 -2 1 -1 0 -3 1 -1 0 -2 1 -1 0 -3 1 0 0 -3 1 0 0 -3 1 0 0 -3 1 -1 0 -2 1 -1 0 -3 1 0 0 -3 1 0 0 -3 1 -1 0 -2 1 -1 0 -2 1 0 0 -3 1 -1 0 -2 1 0 0 -3 1 -1 0 -2 1 0 0 -3 1 -1 0 -2 1 0 0 -2 1 -1 0 -3 1 0 0 -2 1 -1"/>
<path stroke="red" d="M403 342l0 -2 1 -1 0 -2 1 0 0 -3 1 0 0 -2 1 -1 0 -2 1 -1 0 -2 1 0 0 -2 1 0 0 -3 1 0 0 -2 1 -1 0 -2 1 0 0 -2 1 -1 0 -2 1 -1 0 -1 1 -1 0 -2 1 0 0 -2 1 -1 0 -2 1 0 0 -2 1 -1 0 -1 1 -1 0 -2 1 0 0 -2 1 0 0 -2 1 -1 0 -2 1 0 0 -2"/>
<path stroke="red" d="M425 285l1 0 0 -2 1 -1 0 -1 1 -1 0 -2 1 0 0 -2 1 0 0 -2 1 0M431 276l0 -3M431 276l1 1M432 281l0 -4M432 281l1 1M433 287l0 -5M433 287l1 1M434 291l0 -3M434 291l1 1M435 297l0 -5M435 297l1 1M436 301l0 -3M436 301l1 1M437 306l0 -4"/>
<path stroke="red" d="M437 306l1 1M438 311l0 -4M438 311l1 1M439 316l0 -4M439 316l1 1M440 320l0 -3M440 320l1 1M441 325l0 -4M441 325l1 0M442 330l0 -5M442 330l1 0M443 334l0 -4M443 334l1 0M444 339l0 -5M444 339l1 0M445 343l0 -4M445 343l1 0M446 347l0 -4"/>
<path stroke="red" d="M446 347l1 1M447 351l0 -3M447 351l1 1M448 355l0 -3M448 355l1 1M449 360l0 -4M449 360l1 1M450 364l0 -3M450 364l1 0M451 368l0 -4M451 368l1 1M452 372l0 -3M452 372l1 1M453 376l0 -3M453 376l1 1M454 380l0 -3M454 380l1 1M455 383l0 -2"/>
<path stroke="red" d="M455 383l1 1M456 388l0 -4M456 388l1 0M457 391l0 -3M457 391l1 1M458 395l0 -3M458 395l1 1M459 399l0 -3M459 399l1 0M460 403l0 -4M460 403l1 1M461 406l0 -2M461 406l1 1M462 410l0 -3M462 410l1 1M463 413l0 -2M463 413l1 1M464 417l0 -3"/>
<path stroke="red" d="M464 417l1 0M465 421l0 -4M465 421l1 0M466 424l0 -3M466 424l1 0M467 427l0 -3M467 427l1 1M468 431l0 -3M468 431l1 0M469 434l0 -3M469 434l1 1M470 437l0 -2M470 437l1 1M471 440l0 -2M471 440l1 1M472 444l0 -3M472 444l1 0M473 447l0 -3"/>
<path stroke="red" d="M473 447l1 0M474 450l0 -3M474 450l1 1M475 453l0 -2M475 453l1 1M476 456l0 -2M476 456l1 1M477 459l0 -2M477 459l1 1M478 462l0 -2M478 462l1 0M479 465l0 -3M479 465l1 1M480 468l0 -2M480 468l1 0M481 471l0 -3M481 471l1 1M482 474l0 -2"/>
<path stroke="red" d="M482 474l1 0M483 477l0 -3M483 477l1 0M484 479l0 -2M484 479l1 1M485 482l0 -2M485 482l1 1M486 485l0 -2M486 485l1 0M487 487l0 -2M487 487l1 1M488 490l0 -2M488 490l1 1M489 493l0 -2M489 493l1 0M490 496l0 -3M490 496l1 0M491 497l0 -3"/>
<path stroke="red" d="M491 494l1 -1 0 -3 1 0 0 -4 1 -1 0 -3 1 -1 0 -4 1 0 0 -3 1 -1 0 -3 1 -1 0 -3 1 -1 0 -3 1 -1 0 -3 1 -1 0 -3 1 -1 0 -3 1 -1 0 -3 1 0 0 -3 1 -1 0 -3 1 -1 0 -3 1 0 0 -4 1 0 0 -3 1 -1 0 -3 1 -1 0 -2 1 -1 0 -2 1 -1 0 -3 1 -1 0 -2"/>
<path stroke="red" d="M513 411l1 -1 0 -3 1 -1 0 -2 1 -1 0 -3 1 -1 0 -2 1 -1 0 -3 1 0 0 -3 1 0 0 -3 1 0 0 -3 1 -1 0 -2 1 -1 0 -3 1 0 0 -2 1 -1 0 -3 1 0 0 -3 1 0 0 -2 1 -1 0 -3 1 0 0 -2 1 -1 0 -3 1 0 0 -2 1 -1 0 -3 1 0 0 -2 1 -1 0 -2 1 0 0 -3 1 0"/>
<path stroke="red" d="M536 342l0 -2 1 -1 0 -2 1 -1 0 -2 1 0 0 -3 1 0 0 -2 1 -1 0 -2 1 -1 0 -2 1 0 0 -2 1 -1 0 -2 1 0 0 -2 1 -1 0 -2 1 -1 0 -1 1 -1 0 -2 1 -1 0 -1 1 -1 0 -2 1 0 0 -2 1 -1 0 -1 1 -1 0 -2 1 0 0 -2 1 -1 0 -2 1 0 0 -2 1 0 0 -2 1 0"/>
<path stroke="red" d="M558 287l0 -2 1 -1 0 -1 1 -1 0 -2 1 0 0 -2 1 0 0 -2 1 -1 0 -1 1 -1M564 277l0 -4M564 277l1 1M565 283l0 -5M565 283l1 1M566 287l0 -3M566 287l1 1M567 293l0 -5M567 293l1 1M568 297l0 -3M568 297l1 1M569 303l0 -5M569 303l1 1M570 307l0 -3"/>
<path stroke="red" d="M570 307l1 1M571 312l0 -4M571 312l1 0M572 317l0 -5M572 317l1 1M573 321l0 -3M573 321l1 1M574 326l0 -4M574 326l1 1M575 330l0 -3M575 330l1 1M576 335l0 -4M576 335l1 1M577 339l0 -3M577 339l1 1M578 343l0 -3M578 343l1 1M579 348l0 -4"/>
<path stroke="red" d="M579 348l1 1M580 352l0 -3M580 352l1 1M581 357l0 -4M581 357l1 0M582 360l0 -3M582 360l1 1M583 365l0 -4M583 365l1 1M584 369l0 -3M584 369l1 0M585 372l0 -3M585 372l1 1M586 377l0 -4M586 377l1 1M587 380l0 -2M587 380l1 1M588 385l0 -4"/>
<path stroke="red" d="M588 385l1 0M589 388l0 -3M589 388l1 1M590 393l0 -4M590 393l1 0M591 396l0 -3M591 396l1 1M592 400l0 -3M592 400l1 1M593 403l0 -2M593 403l1 1M594 407l0 -3M594 407l1 0M595 411l0 -4M595 411l1 0M596 414l0 -3M596 414l1 1M597 418l0 -3"/>
<path stroke="red" d="M597 418l1 1M598 421l0 -2M598 421l1 1M599 425l0 -3M599 425l1 0M600 428l0 -3M600 428l1 1M601 431l0 -2M601 431l1 1M602 435l0 -3M602 435l1 0M603 438l0 -3M603 438l1 0M604 441l0 -3M604 441l1 1M605 444l0 -2M605 444l1 1M606 448l0 -3"/>
<path stroke="red" d="M606 448l1 0M607 451l0 -3M607 451l1 0M608 453l0 -2M608 453l1 1M609 457l0 -3M609 457l1 0M610 460l0 -3M610 460l1 0M611 463l0 -3M611 463l1 0M612 466l0 -3M612 466l1 0M613 469l0 -3M613 469l1 0M614 471l0 -2M614 471l1 1M615 475l0 -3"/>
<path stroke="red" d="M615 475l1 0M616 477l0 -2M616 477l1 1M617 480l0 -2M617 480l1 0M618 483l0 -3M618 483l1 0M619 485l0 -2M619 485l1 1M620 488l0 -2M620 488l1 1M621 491l0 -2M621 491l1 0M622 494l0 -3M622 494l1 0M623 496l0 -2M623 496l1 0M624 497l0 -4"/>
<path stroke="red" d="M624 493l1 0 0 -3 1 -1 0 -4 1 -1 0 -3 1 -1 0 -3 1 -1 0 -3 1 -1 0 -3 1 -1 0 -3 1 -1 0 -3 1 0 0 -4 1 -1 0 -3 1 0 0 -4 1 -1 0 -2 1 -1 0 -3 1 -1 0 -3 1 -1 0 -2 1 -1 0 -3 1 -1 0 -3 1 0 0 -4 1 0 0 -3 1 0 0 -4 1 0 0 -3 1 -1 0 -3"/>
<path stroke="red" d="M646 409l1 0 0 -3 1 0 0 -3 1 -1 0 -3 1 0 0 -3 1 0 0 -3 1 -1 0 -2 1 -1 0 -3 1 0 0 -3 1 0 0 -3 1 0 0 -3 1 -1 0 -2 1 -1 0 -2 1 -1 0 -2 1 -1 0 -3 1 0 0 -2 1 -1 0 -2 1 -1 0 -2 1 -1 0 -2 1 0 0 -3 1 -1 0 -2 1 0 0 -3 1 0 0 -2 1 -1"/>
<path stroke="red" d="M669 341l0 -2 1 -1 0 -2 1 0 0 -2 1 -1 0 -2 1 -1 0 -2 1 0 0 -3 1 0 0 -2 1 -1 0 -2 1 -1 0 -1 1 -1 0 -2 1 0 0 -3 1 0 0 -2 1 0 0 -3 1 0 0 -2 1 0 0 -2 1 -1 0 -2 1 0 0 -2 1 0 0 -2 1 -1 0 -2 1 0 0 -2 1 -1 0 -1 1 -1 0 -2 1 0 0 -2"/>
<path stroke="red" d="M691 284l1 0 0 -2 1 -1 0 -1 1 -1 0 -1 1 -1 0 -2 1 0 0 -2M696 274l1 0M697 279l0 -5M697 279l1 1M698 284l0 -4M698 284l1 1M699 289l0 -4M699 289l1 1M700 293l0 -3M700 293l1 1M701 299l0 -5M701 299l1 1M702 303l0 -3M702 303l1 1M703 308l0 -4"/>
<path stroke="red" d="M703 308l1 1M704 313l0 -4M704 313l1 1M705 318l0 -4M705 318l1 1M706 322l0 -3M706 322l1 1M707 326l0 -3M707 326l1 1M708 331l0 -4M708 331l1 1M709 336l0 -4M709 336l1 0M710 340l0 -4M710 340l1 1M711 344l0 -3M711 344l1 1M712 349l0 -4"/>
<path stroke="red" d="M712 349l1 1M713 353l0 -3M713 353l1 1M714 357l0 -3M714 357l1 1M715 362l0 -4M715 362l1 0M716 365l0 -3M716 365l1 1M717 370l0 -4M717 370l1 1M718 374l0 -3M718 374l1 0M719 378l0 -4M719 378l1 1M720 382l0 -3M720 382l1 0M721 386l0 -4"/>
<path stroke="red" d="M721 386l1 1M722 389l0 -2M722 389l1 1M723 393l0 -3M723 393l1 1M724 397l0 -3M724 397l1 1M725 400l0 -2M725 400l1 1M726 404l0 -3M726 404l1 1M727 408l0 -3M727 408l1 0M728 412l0 -4M728 412l1 0M729 415l0 -3M729 415l1 1M730 418l0 -2"/>
<path stroke="red" d="M730 418l1 1M731 422l0 -3M731 422l1 1M732 425l0 -2M732 425l1 1M733 429l0 -3M733 429l1 0M734 432l0 -3M734 432l1 1M735 436l0 -3M735 436l1 0M736 439l0 -3M736 439l1 0M737 442l0 -3M737 442l1 0M738 445l0 -3M738 445l1 1M739 448l0 -2"/>
<path stroke="red" d="M739 448l1 1M740 451l0 -2M740 451l1 1M741 454l0 -2M741 454l1 1M742 458l0 -3M742 458l1 0M743 460l0 -2M743 460l1 1M744 464l0 -3M744 464l1 0M745 466l0 -2M745 466l1 1M746 469l0 -2M746 469l1 1M747 472l0 -2M747 472l1 1M748 475l0 -2"/>
<path stroke="red" d="M748 475l1 0M749 478l0 -3M749 478l1 0M750 480l0 -2M750 480l1 1M751 484l0 -3M751 484l1 0M752 486l0 -2M752 486l1 1M753 488l0 -1M753 488l1 1M754 491l0 -2M754 491l1 1M755 494l0 -2M755 494l1 0M756 497l0 -3M756 497l1 -1 0 -3 1 -1"/>
<path stroke="red" d="M758 492l0 -3 1 -1 0 -4 1 -1 0 -3 1 0 0 -4 1 -1 0 -3 1 -1 0 -3 1 -1 0 -3 1 -1 0 -3 1 0 0 -4 1 -1 0 -2 1 -1 0 -4 1 0 0 -3 1 -1 0 -3 1 -1 0 -3 1 0 0 -4 1 0 0 -3 1 -1 0 -2 1 -1 0 -3 1 -1 0 -3 1 0 0 -3 1 -1 0 -3 1 0 0 -3 1 -1"/>
<path stroke="red" d="M780 408l0 -3 1 0 0 -3 1 0 0 -3 1 -1 0 -2 1 -1 0 -3 1 -1 0 -2 1 -1 0 -3 1 0 0 -2 1 -1 0 -2 1 -1 0 -3 1 0 0 -3 1 0 0 -3 1 -1 0 -2 1 0 0 -3 1 -1 0 -2 1 0 0 -3 1 -1 0 -2 1 0 0 -3 1 0 0 -3 1 0 0 -2 1 -1 0 -2 1 -1 0 -2 1 -1 0 -2"/>
<path stroke="red" d="M802 338l1 -1 0 -2 1 0 0 -2 1 -1 0 -2 1 0 0 -2 1 -1 0 -2 1 -1 0 -2 1 0 0 -3 1 0 0 -2 1 0 0 -2 1 -1 0 -2 1 -1 0 -1 1 -1 0 -2 1 -1 0 -1 1 -1 0 -2 1 0 0 -2 1 -1 0 -2 1 0 0 -2 1 0 0 -2 1 -1 0 -2 1 0 0 -2 1 0 0 -2 1 -1 0 -1 1 -1"/>
<path stroke="red" d="M825 283l0 -2 1 0 0 -2 1 0 0 -2 1 0 0 -2 1 -1 0 -1M829 274l1 1M830 280l0 -5M830 280l1 1M831 284l0 -3M831 284l1 1M832 290l0 -5M832 290l1 1M833 295l0 -4M833 295l1 0M834 300l0 -5M834 300l1 1M835 304l0 -3M835 304l1 1M836 310l0 -5"/>
<path stroke="red" d="M836 310l1 1M837 314l0 -3M837 314l1 1M838 318l0 -3M838 318l1 1M839 323l0 -4M839 323l1 1M840 328l0 -4M840 328l1 0M841 333l0 -5M841 333l1 0M842 337l0 -4M842 337l1 0M843 341l0 -4M843 341l1 1M844 345l0 -3M844 345l1 1M845 349l0 -3"/>
<path stroke="red" d="M845 349l1 1M846 354l0 -4M846 354l1 1M847 358l0 -3M847 358l1 1M848 363l0 -4M848 363l1 0M849 366l0 -3M849 366l1 1M850 371l0 -4M850 371l1 1M851 374l0 -2M851 374l1 1M852 378l0 -3M852 378l1 1M853 382l0 -3M853 382l1 1M854 386l0 -3"/>
<path stroke="red" d="M854 386l1 1M855 390l0 -3M855 390l1 1M856 394l0 -3M856 394l1 0M857 398l0 -4M857 398l1 1M858 401l0 -2M858 401l1 1M859 405l0 -3M859 405l1 1M860 409l0 -3M860 409l1 0M861 412l0 -3M861 412l1 1M862 416l0 -3M862 416l1 0M863 419l0 -3"/>
<path stroke="red" d="M863 419l1 1M864 423l0 -3M864 423l1 0M865 426l0 -3M865 426l1 1M866 430l0 -3M866 430l1 0M867 433l0 -3M867 433l1 0M868 436l0 -3M868 436l1 0M869 439l0 -3M869 439l1 1M870 442l0 -2M870 442l1 1M871 446l0 -3M871 446l1 0M872 449l0 -3"/>
<path stroke="red" d="M872 449l1 0M873 452l0 -3M873 452l1 1M874 455l0 -2M874 455l1 1M875 458l0 -2M875 458l1 0M876 461l0 -3M876 461l1 1M877 464l0 -2M877 464l1 0M878 467l0 -3M878 467l1 1M879 470l0 -2M879 470l1 0M880 473l0 -3M880 473l1 0M881 476l0 -3"/>
<path stroke="red" d="M881 476l1 0M882 479l0 -3M882 479l1 0M883 481l0 -2M883 481l1 1M884 484l0 -2M884 484l1 0M885 487l0 -3M885 487l1 0M886 489l0 -2M886 489l1 1M887 492l0 -2M887 492l1 1M888 494l0 -1M888 494l1 1M889 497l0 -2M889 496l1 -1 0 -3 1 -1"/>
<path stroke="red" d="M891 491l0 -4 1 0 0 -3 1 -1 0 -4 1 -1 0 -3 1 0 0 -4 1 -1 0 -3 1 -1 0 -2 1 -1 0 -4 1 -1 0 -2 1 -1 0 -4 1 0 0 -3 1 -1 0 -3 1 -1 0 -3 1 0 0 -4 1 0 0 -3 1 -1 0 -3 1 0 0 -4 1 0 0 -3 1 0 0 -4 1 0 0 -3 1 -1 0 -3 1 0 0 -3 1 0 0 -3"/>
<path stroke="red" d="M913 405l1 -1 0 -3 1 0 0 -3 1 0 0 -3 1 -1 0 -2 1 -1 0 -3 1 -1 0 -2 1 -1 0 -2 1 0 0 -3 1 -1 0 -2 1 -1 0 -3 1 0 0 -2 1 -1 0 -3 1 0 0 -3 1 0 0 -3 1 0 0 -3 1 0 0 -2 1 -1 0 -2 1 -1 0 -2 1 -1 0 -2 1 -1 0 -2 1 0 0 -3 1 0 0 -2 1 -1"/>
<path stroke="red" d="M936 337l0 -2 1 0 0 -3 1 0 0 -2 1 -1 0 -2 1 -1 0 -2 1 0 0 -3 1 0 0 -2 1 0 0 -2 1 -1 0 -2 1 -1 0 -1 1 -1 0 -2 1 -1 0 -1 1 -1 0 -2 1 -1 0 -1 1 -1 0 -2 1 0 0 -2 1 -1 0 -1 1 -1 0 -2 1 0 0 -2 1 0 0 -2 1 -1 0 -2 1 0 0 -2 1 0 0 -2"/>
<path stroke="red" d="M958 281l1 0 0 -2 1 0 0 -2 1 -1 0 -1 1 -1M962 276l0 -3M962 276l1 1M963 281l0 -4M963 281l1 1M964 285l0 -3M964 285l1 1M965 291l0 -5M965 291l1 1M966 296l0 -4M966 296l1 0M967 301l0 -5M967 301l1 1M968 305l0 -3M968 305l1 1M969 311l0 -5"/>
<path stroke="red" d="M969 311l1 0M970 313l0 -2"/>
<path stroke="blue" d="M50 23l46 0"/>
<text stroke="none" fill="white" font-size="16" x="106" y="32">
v(out_555)
</text>
<path stroke="blue" d="M50 50l115 0M165 720l0 -670M165 720l60 0 0 -670 73 0M298 720l0 -670M298 720l60 0 0 -670 73 0M431 720l0 -670M431 720l60 0 0 -670 73 0M564 720l0 -670M564 720l60 0 0 -670 72 0M696 720l0 -670M696 720l60 0 0 -670 73 0M829 720l0 -670"/>
<path stroke="blue" d="M829 720l60 0 0 -670 73 0M962 720l0 -670M962 720l8 0"/>
</svg>
